<svg id="Capa_1" enable-background="new 0 0 512 512" height="512" viewBox="0 0 512 512" width="512" xmlns="http://www.w3.org/2000/svg"><g><path d="m453.131 95.178-64-88c-5.988-8.235-18.281-8.226-24.262 0l-64 88c-7.202 9.902-.105 23.822 12.131 23.822h17v177h94v-177h17c12.244 0 19.328-13.927 12.131-23.822z" fill="#69f"/><path d="m424 296v-177h17c12.244 0 19.328-13.927 12.131-23.822l-64-88c-2.822-3.882-7.332-6.178-12.131-6.178v295z" fill="#4d6aff"/><path d="m377 241c-74.439 0-135 60.561-135 135s60.561 135 135 135 135-60.561 135-135-60.561-135-135-135zm0 209.275c-40.634 0-73.691-33.058-73.691-73.691s33.058-73.692 73.691-73.692 73.691 33.059 73.691 73.692-33.057 73.691-73.691 73.691z" fill="#80aaff"/><path d="m450.691 376.584c0 40.634-33.058 73.691-73.691 73.691v60.725c74.439 0 135-60.561 135-135s-60.561-135-135-135v61.892c40.634 0 73.691 33.058 73.691 73.692z" fill="#69f"/><path d="m207 353h-25v-111c0-8.284-6.716-15-15-15h-64c-8.284 0-15 6.716-15 15v111h-25c-8.284 0-15 6.716-15 15v64c0 8.284 6.716 15 15 15h25v49c0 8.284 6.716 15 15 15h64c8.284 0 15-6.716 15-15v-49h25c8.284 0 15-6.716 15-15v-64c0-8.284-6.716-15-15-15z" fill="#e62e6b"/><path d="m207 353h-25v-111c0-8.284-6.716-15-15-15h-32v284h32c8.284 0 15-6.716 15-15v-49h25c8.284 0 15-6.716 15-15v-64c0-8.284-6.716-15-15-15z" fill="#b32453"/><path d="m135 1c-74.439 0-135 60.561-135 135s60.561 135 135 135 135-60.561 135-135-60.561-135-135-135zm0 208.691c-40.634 0-73.691-33.058-73.691-73.691s33.057-73.691 73.691-73.691 73.691 33.057 73.691 73.691-33.057 73.691-73.691 73.691z" fill="#f66"/><path d="m208.691 136c0 40.634-33.058 73.691-73.691 73.691v61.309c74.439 0 135-60.561 135-135s-60.561-135-135-135v61.309c40.634 0 73.691 33.057 73.691 73.691z" fill="#e62e6b"/></g></svg>