<?xml version="1.0" encoding="iso-8859-1"?>
<!-- Generator: Adobe Illustrator 19.0.0, SVG Export Plug-In . SVG Version: 6.00 Build 0)  -->
<svg version="1.1" id="Capa_1" xmlns="http://www.w3.org/2000/svg" xmlns:xlink="http://www.w3.org/1999/xlink" x="0px" y="0px"
	 viewBox="0 0 512 512" style="enable-background:new 0 0 512 512;" xml:space="preserve">
<path style="fill:#FFDAAA;" d="M444.548,420.936l-140.312-40.793v-45.884v-97.835c-9.984-52.514-56.123-92.22-111.545-92.22h-27.132
	v113.554c0,32.214,16.846,60.491,42.206,76.513v45.872L67.453,420.936c-16.935,5.144-28.512,20.761-28.512,38.461V512h434.12
	v-52.603C473.06,441.698,461.483,426.08,444.548,420.936z"/>
<path style="fill:#FFC477;" d="M304.236,380.143v-45.872c-13.961,8.82-30.501,13.929-48.236,13.929l0,0
	c-17.735,0-34.274-5.109-48.236-13.929v22.934c14.584,7.103,30.952,11.093,48.236,11.093c9.563,0,19.011-1.237,28.137-3.64V512
	h154.253v-92.854L304.236,380.143z"/>
<path style="fill:#FFC853;" d="M250.976,7.537L250.976,7.537c-92.407,0-167.317,74.91-167.317,167.317v62.809
	c0,67.153,55.446,121.591,122.599,121.591h1.507v-24.981c-25.36-16.021-42.206-44.298-42.206-76.513V144.205h27.132
	c55.421,0,101.561,39.706,111.545,92.22V512h114.057V174.854C418.293,82.447,343.383,7.537,250.976,7.537z"/>
<path style="fill:#FFFFFF;" d="M354.763,116.53c-1.629-4.692-3.618-9.309-5.907-13.726l13.381-6.938
	c2.622,5.057,4.898,10.346,6.764,15.719L354.763,116.53z M341.567,90.797c-19.613-27.909-51.601-44.572-85.567-44.572V31.152
	c38.87,0,75.467,19.057,97.901,50.978L341.567,90.797z"/>
<path style="fill:#DBA34B;" d="M207.765,357.205v-22.934c-25.36-16.021-42.206-44.298-42.206-76.513V136.165h-20.098v121.594
	C145.461,301.427,170.916,339.259,207.765,357.205z"/>
<path style="fill:#FFC477;" d="M192.691,144.204h-27.132v20.098h7.034c55.421,0,111.545,39.191,111.545,92.22v87.199
	c7.129-2.335,13.871-5.528,20.098-9.462v-97.835C294.252,183.91,248.113,144.204,192.691,144.204z"/>
<rect x="373.404" y="256.754" width="15.074" height="255.246"/>
<rect x="336.061" y="337.146" width="15.074" height="174.854"/>
<path d="M451.358,415.399l-5.837,13.898c12.151,5.103,20.002,16.918,20.002,30.099V512h15.074v-52.604
	C480.597,440.128,469.12,422.859,451.358,415.399z"/>
<path d="M250.976,0C154.561,0,76.122,78.439,76.122,174.854v62.809c0,69.195,55.138,125.845,124.106,128.983v7.84l-134.966,39.24
	c-20.252,6.151-33.858,24.506-33.858,45.671V512h15.074v-52.604c0-14.482,9.31-27.04,23.08-31.222l145.745-42.373v-38.926
	c12.403,5.687,26.186,8.862,40.699,8.862c14.133,0,27.985-3.041,40.699-8.856V512h15.074V338.412v-10.31v-92.388l-0.133-0.696
	c-10.835-56.988-60.859-98.35-118.949-98.35h-34.669v121.091c0,33.318,16.721,62.799,42.206,80.508v13.293
	c-60.654-3.119-109.032-53.013-109.032-113.897v-62.809c0-88.103,71.677-159.78,159.78-159.78s159.78,71.677,159.78,159.78v322.073
	h-0.502V512h0.502h14.571h0.502V174.854C425.83,78.439,347.391,0,250.976,0z M173.096,257.759V151.741h19.596
	c50.626,0,94.255,35.874,104.008,85.406v90.955v1.884c-12.387,6.997-26.374,10.677-40.699,10.677
	C210.287,340.663,173.096,303.472,173.096,257.759z"/>
<g>
</g>
<g>
</g>
<g>
</g>
<g>
</g>
<g>
</g>
<g>
</g>
<g>
</g>
<g>
</g>
<g>
</g>
<g>
</g>
<g>
</g>
<g>
</g>
<g>
</g>
<g>
</g>
<g>
</g>
</svg>
