<?xml version="1.0" encoding="iso-8859-1"?>
<!-- Generator: Adobe Illustrator 19.0.0, SVG Export Plug-In . SVG Version: 6.00 Build 0)  -->
<svg version="1.1" id="Capa_1" xmlns="http://www.w3.org/2000/svg" xmlns:xlink="http://www.w3.org/1999/xlink" x="0px" y="0px"
	 viewBox="0 0 434 434" style="enable-background:new 0 0 434 434;" xml:space="preserve">
<g>
	<g>
		<path d="M409.36,252.66c-17.143-7.899-35.201-13.636-53.76-17.08c-3.48-113.12-41.72-141.08-80-141.08
			c-26.6,0.04-52.48,14.12-66.6,21.8c-3.52,1.92-6.2,3.4-7.44,4c-8.24,3.08-20,1.28-32.32-0.6c-8.739-1.618-17.595-2.528-26.48-2.72
			c-32.92,0.28-62.28,18.48-64.44,118.72c-18.53,3.435-36.562,9.158-53.68,17.04c-15.8,8-24.64,17.6-24.64,28.6
			c0,17.92,25.68,33.08,67.16,43.12c38.52,9.28,91.48,15.04,149.84,15.04c58.36,0,111.36-5.76,149.84-15.04
			c41.48-10,67.16-25.2,67.16-43.12C434,270.3,425,260.62,409.36,252.66z M142.88,132.06L142.88,132.06
			c8.052,0.211,16.075,1.04,24,2.48c14.24,2.2,28,4.28,40-0.24c3.225-1.384,6.364-2.961,9.4-4.72c12.84-7,36.44-20,59.24-20
			c32.6,0,65.12,28,65.12,143.16c0,4.8-12.48,10.2-32.64,15.04c-29.892,6.473-60.417,9.56-91,9.2
			c-30.59,0.415-61.129-2.617-91.04-9.04c-20-4.88-32.64-10.28-32.64-15.04c0-0.24,0-0.48,0-0.72
			C92.6,150.18,116.2,132.3,142.88,132.06z M363.28,309.66c-37.28,9-89,14.56-146.28,14.56c-57.28,0-109-5.56-146.28-14.56
			c-34.28-8.28-55.52-18.4-55.52-28.4c0-4.64,5.84-9.8,16.24-15.04c14.928-6.868,30.627-11.917,46.76-15.04v1.04v0.64
			c0,12.72,16.92,23.16,44.24,29.76c31.06,6.735,62.781,9.942,94.56,9.56c31.791,0.398,63.526-2.796,94.6-9.52
			c27.36-6.6,44.24-17.04,44.24-29.76v-1.68c16.105,3.129,31.777,8.178,46.68,15.04c10.44,5.24,16.28,10.4,16.28,15.08
			C418.8,291.26,397.6,301.38,363.28,309.66z"/>
	</g>
</g>
<g>
</g>
<g>
</g>
<g>
</g>
<g>
</g>
<g>
</g>
<g>
</g>
<g>
</g>
<g>
</g>
<g>
</g>
<g>
</g>
<g>
</g>
<g>
</g>
<g>
</g>
<g>
</g>
<g>
</g>
</svg>
