<svg height="512" viewBox="0 0 128 128" width="512" xmlns="http://www.w3.org/2000/svg"><g id="icon"><path d="m128.017 87.214c-4.994-6.646-31.352-11.714-63.136-11.714-32 0-58.51 5.139-63.245 11.852l-.755-.826v2.974c0 7.735 28.654 14.006 64 14.006s64-6.271 64-14.006v-2.98z" fill="#af8054"/><ellipse cx="64.881" cy="86.523" fill="#bd8d5a" rx="64" ry="14.006"/><path d="m104.122 83.084a225.611 225.611 0 0 1 -78.481 0l8.854-51.7a8.17 8.17 0 0 1 10.616-6.484l14 4.6a18.5 18.5 0 0 0 11.539 0l14-4.6a8.17 8.17 0 0 1 10.616 6.48z" fill="#bd8d5a"/><path d="m104.12 83.083a226.156 226.156 0 0 1 -43.64 3.4 228.207 228.207 0 0 0 34.83-3.4l-8.85-51.7a8.158 8.158 0 0 0 -3.96-5.783l2.15-.7a8.171 8.171 0 0 1 10.62 6.48z" fill="#b28256"/><path d="m104.121 83.083a225.315 225.315 0 0 1 -78.48 0l2.17-13.639a225.036 225.036 0 0 0 74.14 0z" fill="#e1b378"/><path d="m104.12 83.083a226.156 226.156 0 0 1 -43.64 3.4 228.207 228.207 0 0 0 34.83-3.4l-1.97-12.383q4.3-.54 8.61-1.261z" fill="#d0aa79"/></g></svg>